<svg xmlns="http://www.w3.org/2000/svg" viewBox="0 0 1000 963"><path fill="#1169ae" d="M716.18 369.35c-79.86-25.45-148.49-89.11-171.5-171.29-14.13-50.51-8.34-104.97 19.02-150.29 9.6-15.91 22-31.48 33.1-46.73q.16-.22.3-.3.49-.31.17.31-26.5 50.06-19.51 105.71c10.06 80.18 64.58 150.88 135.41 187.82 37.01 19.3 79.45 29.08 120.89 30.36 55.76 1.72 105.74-18.16 138.57-64.11q.29-.41.05.03-6.06 11.27-12.64 22.16c-49.86 82.5-132.43 107.41-224.47 91.11q-9.9-1.75-19.39-4.78Z"/><path fill="#1169ae" d="M1000 444.81v.5c-35.01 94.96-112.94 164.58-208.99 192.22-61.41 17.66-127.03 17.26-190.31 7.71q-9.85-1.49-19.49-4.37c-69.09-20.66-130.32-57.4-181.06-108.66q-12.94-13.06-15.82-16.04c-13.45-13.92-26.23-33.37-35.56-47.66-69.47-106.44-83.67-245.77-7.51-353.74q23.95-33.94 47.9-67.85.46-.65.84-.96.55-.44.2.17c-48.2 83.28-47.63 184.39-10.77 271.44 60.68 143.31 207.19 243.63 362.38 248.28 100.09 3 198.93-37.69 257.63-121.17a.23.23 0 0 1 .33-.05l.23.18Z"/><path fill="#1169ae" d="M572.44 963h-50.5q-46.39-2.27-92.11-10.22c-18.68-3.25-37.94-10.05-55.33-16.26C169.58 863.37 9.49 672.26 0 450.69v-28c2.72-73.35 25.28-148.42 71.21-206.49q30.47-38.54 60.83-77.15.14-.19.31-.24.36-.12.19.21C93.11 216.35 81.75 303.7 95.82 389.09 114 499.32 169.7 599.74 249.67 677.83q106.31 103.81 249.3 145.23 8.94 2.59 18 4.57c163.04 35.68 349.59 6.42 458.41-132.99a.27.26 45.7 0 1 .42.01c1.04 1.39-17.94 37.27-20.65 41.95q-41.31 71.29-103.14 122.67C771.97 925.78 675.5 958.12 572.44 963Z"/></svg>