<svg width="84" height="84" viewBox="0 0 84 84" fill="none" xmlns="http://www.w3.org/2000/svg">
<circle cx="9" cy="3" r="3" fill="#3737FF"/>
<circle cx="9" cy="15" r="3" fill="#3737FF"/>
<circle cx="9" cy="27" r="3" fill="#3737FF"/>
<circle cx="9" cy="39" r="3" fill="#3737FF"/>
<circle cx="9" cy="51" r="3" fill="#3737FF"/>
<circle cx="9" cy="63" r="3" fill="#3737FF"/>
<circle cx="9" cy="75" r="3" fill="#3737FF"/>
<circle cx="3" cy="9" r="3" fill="#3737FF"/>
<circle cx="3" cy="21" r="3" fill="#3737FF"/>
<circle cx="3" cy="33" r="3" fill="#3737FF"/>
<circle cx="3" cy="45" r="3" fill="#3737FF"/>
<circle cx="3" cy="57" r="3" fill="#3737FF"/>
<circle cx="3" cy="69" r="3" fill="#3737FF"/>
<circle cx="3" cy="81" r="3" fill="#3737FF"/>
<circle cx="21" cy="3" r="3" fill="#3737FF"/>
<circle cx="21" cy="15" r="3" fill="#3737FF"/>
<circle cx="21" cy="27" r="3" fill="#3737FF"/>
<circle cx="21" cy="39" r="3" fill="#3737FF"/>
<circle cx="21" cy="51" r="3" fill="#3737FF"/>
<circle cx="21" cy="63" r="3" fill="#3737FF"/>
<circle cx="21" cy="75" r="3" fill="#3737FF"/>
<circle cx="15" cy="9" r="3" fill="#3737FF"/>
<circle cx="15" cy="21" r="3" fill="#3737FF"/>
<circle cx="15" cy="33" r="3" fill="#3737FF"/>
<circle cx="15" cy="45" r="3" fill="#3737FF"/>
<circle cx="15" cy="57" r="3" fill="#3737FF"/>
<circle cx="15" cy="69" r="3" fill="#3737FF"/>
<circle cx="15" cy="81" r="3" fill="#3737FF"/>
<circle cx="33" cy="3" r="3" fill="#3737FF"/>
<circle cx="33" cy="75" r="3" fill="#3737FF"/>
<circle cx="27" cy="9" r="3" fill="#3737FF"/>
<circle cx="33" cy="15" r="4" fill="#FFFF47"/>
<circle cx="27" cy="21" r="4" fill="#FFFF47"/>
<circle cx="33" cy="27" r="4" fill="#FFFF47"/>
<circle cx="27" cy="33" r="4" fill="#FFFF47"/>
<circle cx="33" cy="39" r="4" fill="#FFFF47"/>
<circle cx="27" cy="45" r="4" fill="#FFFF47"/>
<circle cx="33" cy="51" r="4" fill="#FFFF47"/>
<circle cx="27" cy="57" r="4" fill="#FFFF47"/>
<circle cx="33" cy="63" r="4" fill="#FFFF47"/>
<circle cx="45" cy="63" r="4" fill="#FFFF47"/>
<circle cx="57" cy="63" r="4" fill="#FFFF47"/>
<circle cx="27" cy="69" r="4" fill="#FFFF47"/>
<circle cx="39" cy="69" r="4" fill="#FFFF47"/>
<circle cx="51" cy="69" r="4" fill="#FFFF47"/>
<circle cx="27" cy="81" r="3" fill="#3737FF"/>
<circle cx="45" cy="3" r="3" fill="#3737FF"/>
<circle cx="45" cy="15" r="3" fill="#3737FF"/>
<circle cx="45" cy="27" r="3" fill="#3737FF"/>
<circle cx="45" cy="39" r="3" fill="#3737FF"/>
<circle cx="45" cy="51" r="3" fill="#3737FF"/>
<circle cx="45" cy="75" r="3" fill="#3737FF"/>
<circle cx="39" cy="9" r="3" fill="#3737FF"/>
<circle cx="39" cy="21" r="3" fill="#3737FF"/>
<circle cx="39" cy="33" r="3" fill="#3737FF"/>
<circle cx="39" cy="45" r="3" fill="#3737FF"/>
<circle cx="39" cy="57" r="3" fill="#3737FF"/>
<circle cx="39" cy="81" r="3" fill="#3737FF"/>
<circle cx="57" cy="3" r="3" fill="#3737FF"/>
<circle cx="57" cy="15" r="3" fill="#3737FF"/>
<circle cx="57" cy="27" r="3" fill="#3737FF"/>
<circle cx="57" cy="39" r="3" fill="#3737FF"/>
<circle cx="57" cy="51" r="3" fill="#3737FF"/>
<circle cx="57" cy="75" r="3" fill="#3737FF"/>
<circle cx="51" cy="9" r="3" fill="#3737FF"/>
<circle cx="51" cy="21" r="3" fill="#3737FF"/>
<circle cx="51" cy="33" r="3" fill="#3737FF"/>
<circle cx="51" cy="45" r="3" fill="#3737FF"/>
<circle cx="51" cy="57" r="3" fill="#3737FF"/>
<circle cx="51" cy="81" r="3" fill="#3737FF"/>
<circle cx="69" cy="3" r="3" fill="#3737FF"/>
<circle cx="69" cy="15" r="3" fill="#3737FF"/>
<circle cx="69" cy="27" r="3" fill="#3737FF"/>
<circle cx="69" cy="39" r="3" fill="#3737FF"/>
<circle cx="69" cy="51" r="3" fill="#3737FF"/>
<circle cx="69" cy="63" r="3" fill="#3737FF"/>
<circle cx="69" cy="75" r="3" fill="#3737FF"/>
<circle cx="63" cy="9" r="3" fill="#3737FF"/>
<circle cx="63" cy="21" r="3" fill="#3737FF"/>
<circle cx="63" cy="33" r="3" fill="#3737FF"/>
<circle cx="63" cy="45" r="3" fill="#3737FF"/>
<circle cx="63" cy="57" r="3" fill="#3737FF"/>
<circle cx="63" cy="69" r="3" fill="#3737FF"/>
<circle cx="63" cy="81" r="3" fill="#3737FF"/>
<circle cx="81" cy="3" r="3" fill="#3737FF"/>
<circle cx="81" cy="15" r="3" fill="#3737FF"/>
<circle cx="81" cy="27" r="3" fill="#3737FF"/>
<circle cx="81" cy="39" r="3" fill="#3737FF"/>
<circle cx="81" cy="51" r="3" fill="#3737FF"/>
<circle cx="81" cy="63" r="3" fill="#3737FF"/>
<circle cx="81" cy="75" r="3" fill="#3737FF"/>
<circle cx="75" cy="9" r="3" fill="#3737FF"/>
<circle cx="75" cy="21" r="3" fill="#3737FF"/>
<circle cx="75" cy="33" r="3" fill="#3737FF"/>
<circle cx="75" cy="45" r="3" fill="#3737FF"/>
<circle cx="75" cy="57" r="3" fill="#3737FF"/>
<circle cx="75" cy="69" r="3" fill="#3737FF"/>
<circle cx="75" cy="81" r="3" fill="#3737FF"/>
</svg>
