<?xml version="1.0" encoding="UTF-8"?>
<svg id="Layer_1" data-name="Layer 1" xmlns="http://www.w3.org/2000/svg" viewBox="0 0 960 960">
  <defs>
    <style>
      .cls-1 {
        fill: #231f20;
        stroke-width: 0px;
      }
    </style>
  </defs>
  <g id="Layer_1-2" data-name="Layer 1-2">
    <g>
      <path class="cls-1" d="M593.83,386.26c-11.55,0-21.25-7.78-24.31-18.37h64.07l8.83-13.73h-72.94c3.02-10.67,12.73-18.37,24.31-18.37h43.99l8.79-13.73h-53.79c-21.52,0-38.97,17.45-38.97,39.05s17.45,38.97,38.97,38.97h46.31l8.79-13.73h-54.05v-.09ZM410.33,399.99h46.31l8.79-13.73h-54.01c-14.04,0-25.32-11.33-25.32-25.23s11.28-25.23,25.32-25.23h43.95l8.92-13.82h-53.88c-21.56,0-39.05,17.45-39.05,39.05s17.49,38.97,39.05,38.97M125.59,386.26h-43.34c-13.95,0-25.23-11.33-25.23-25.23s11.28-25.23,25.23-25.23h43.29c13.95,0,25.32,11.28,25.32,25.23s-11.28,25.23-25.32,25.23M81.29,399.99h45.35c21.56,0,38.92-17.45,38.92-38.97s-17.41-39.01-39.01-39.01h-45.31c-21.6,0-39.05,17.41-39.05,39.05s17.45,38.97,39.05,38.97l.04-.04ZM239.17,374.76c14.65,0,26.37-11.81,26.37-26.37s-11.76-26.37-26.41-26.37h-65.64v78.02h15v-64.2h49.64c7,0,12.64,5.64,12.64,12.59s-5.64,12.68-12.64,12.68h-42.25l44.83,38.97h21.73l-30.04-25.23h6.82M487.21,386.26v-64.24h-15v70.58c0,1.92.83,3.8,2.23,5.16,1.4,1.49,3.41,2.27,5.42,2.27h68.35l8.92-13.73h-69.93v-.04ZM303.63,372.53h39.97l-21.12-34.07-38.79,61.57h-17.71l47.27-73.95c2.01-3.02,5.51-4.81,9.27-4.81s7.08,1.75,9.14,4.68l47.36,74.08h-17.67l-8.31-13.73h-40.54l-8.83-13.73h0l-.04-.04Z"/>
      <g>
        <polygon class="cls-1" points="152.93 594.91 65.07 464.58 64.68 464.02 42.2 464.02 42.2 636.01 66.21 636.01 66.21 505.12 154.06 635.45 154.46 636.01 176.89 636.01 176.89 464.02 152.93 464.02 152.93 594.91"/>
        <path class="cls-1" d="M379.2,615.98c-1.66.17-3.45.22-5.25.22-10.76,0-15.96-6.12-15.96-18.76v-65.86h26.33v-19.81h-26.33v-33.54h-14.87l-8.44,33.37-21.17,7.04v12.9h20.99v66.08c0,13.34,2.93,23.35,8.7,29.78,5.99,6.47,15.26,9.71,27.51,9.71,2.49,0,4.9-.09,7.08-.22,2.36-.17,4.68-.48,6.95-.96l1.01-.22v-20.64l-1.4.13c-1.57.17-3.32.39-5.12.7l-.04.09Z"/>
        <path class="cls-1" d="M624.36,592.06c-3.19,8.05-7.96,14.61-14.21,19.5-6.12,4.77-12.73,7.22-19.72,7.22-8.27,0-14.61-2.67-18.8-7.92-4.29-5.34-6.47-13.16-6.47-23.22v-75.87h-23.53v76.57c0,16.09,3.8,28.6,11.28,37.22,7.7,8.62,18.59,13.03,32.41,13.03,9.01,0,17.45-2.1,25.06-6.21,6.87-3.63,12.77-8.75,17.58-15.13l3.37,18.8h16.57v-124.2h-23.53v80.29-.09Z"/>
        <polygon class="cls-1" points="670.63 522.4 682.74 530.1 682.74 636.01 706.27 636.01 706.27 511.82 670.63 511.82 670.63 522.4"/>
        <rect class="cls-1" x="677.84" y="471.49" width="28.21" height="21.43"/>
        <path class="cls-1" d="M789.88,615.98c-1.66.17-3.45.22-5.25.22-10.76,0-15.96-6.12-15.96-18.76v-65.86h26.33v-19.81h-26.33v-33.54h-14.87l-8.44,33.37-21.21,7.04v12.9h20.99v66.08c0,13.34,2.93,23.35,8.75,29.78,5.99,6.47,15.26,9.71,27.51,9.71,2.49,0,4.9-.09,7.08-.22,2.36-.17,4.68-.48,6.95-.96l1.01-.22v-20.64l-1.4.13c-1.57.17-3.32.39-5.12.7l-.04.09Z"/>
        <path class="cls-1" d="M916.92,566.7c0-38.13-17.54-57.46-52.08-57.46-17.84,0-31.79,5.47-41.5,16.27-9.75,11.06-14.3,26.06-14.3,47.23s5.03,37.87,15,49.11c10.15,11.11,25.19,16.75,44.74,16.75,8.57,0,16.57-.79,23.83-2.36,7.43-1.57,13.43-3.76,17.89-6.47l.61-.39v-20.42l-1.79.83c-6.38,2.89-12.73,5.07-18.85,6.43s-12.68,2.06-19.55,2.06c-12.2,0-21.47-3.02-27.55-8.97-5.9-5.9-9.45-15.31-10.5-27.9h84.05v-14.78.09ZM832.87,562.37c.74-10.63,3.76-18.85,8.88-24.45,5.47-5.9,13.25-8.92,23.09-8.92h0c10.45,0,17.93,2.67,22.35,7.96,4.42,5.16,6.73,13.69,6.91,25.41h-61.22Z"/>
        <path class="cls-1" d="M252.99,509.23c-17.84,0-31.79,5.47-41.5,16.27-9.75,11.06-14.3,26.06-14.3,47.23s5.03,37.87,15.04,49.11c10.15,11.11,25.19,16.75,44.74,16.75,8.57,0,16.57-.79,23.83-2.36,7.43-1.57,13.43-3.76,17.89-6.47l.61-.39v-20.42l-1.79.83c-6.38,2.89-12.73,5.07-18.85,6.43s-12.68,2.06-19.55,2.06c-12.2,0-21.47-3.02-27.55-8.97-5.9-5.9-9.45-15.31-10.5-27.9h84.05v-14.78c0-38.13-17.54-57.46-52.08-57.46l-.04.09ZM221.02,562.37c.74-10.63,3.76-18.85,8.88-24.45,5.47-5.9,13.25-8.92,23.09-8.92h0c10.45,0,17.93,2.67,22.35,7.96,4.42,5.16,6.73,13.69,6.91,25.41h-61.22Z"/>
        <path class="cls-1" d="M513.41,561.41c-6.6-7.74-17.93-14.74-33.59-20.86l-17.93-7c-11.15-4.46-19.02-8.66-23.4-12.59-4.29-3.8-6.34-8.31-6.34-13.73,0-16.53,12.03-24.58,36.73-24.58,13.12,0,27.68,3.41,43.29,10.15l1.79.79v-21.82l-.66-.35c-5.82-3.15-12.9-5.64-21.08-7.35-8.13-1.88-16.14-2.84-23.83-2.84-18.54,0-33.37,4.15-44.13,12.38-10.85,8.31-16.36,19.77-16.36,34.11,0,10.06,3.41,18.98,10.15,26.5,6.78,7.26,17.93,13.95,33.11,19.9l17.97,7c11.59,4.46,19.68,8.83,24.05,13.03,4.24,4.07,6.38,9.31,6.38,15.61,0,8.66-3.5,15.26-10.63,20.16-7.04,4.94-17.1,7.48-29.78,7.48-15.31,0-31.62-3.5-48.45-10.41l-1.75-.7v21.82l.7.35c3.98,1.92,8.83,3.67,14.43,5.2,5.64,1.57,11.72,2.84,18.1,3.76,6.52.92,12.86,1.4,18.8,1.4,19.64,0,35.12-4.33,46.01-12.86,11.15-8.75,16.79-21.12,16.79-36.69,0-10.85-3.5-20.2-10.32-27.86h-.09Z"/>
      </g>
    </g>
  </g>
</svg>